<?xml version="1.0" standalone="no"?>
<!DOCTYPE svg PUBLIC "-//W3C//DTD SVG 20010904//EN"
 "http://www.w3.org/TR/2001/REC-SVG-20010904/DTD/svg10.dtd">
<svg version="1.0" xmlns="http://www.w3.org/2000/svg"
 width="300.000000pt" height="116.000000pt" viewBox="0 0 300.000000 116.000000"
 preserveAspectRatio="xMidYMid meet">
<metadata>
Created by potrace 1.10, written by Peter Selinger 2001-2011
</metadata>
<g transform="translate(0.000000,116.000000) scale(0.100000,-0.100000)"
fill="#000000" stroke="none">
<path d="M155 876 c-56 -21 -87 -59 -83 -104 5 -54 36 -71 148 -80 78 -6 95
-10 98 -24 7 -35 -114 -31 -199 6 -14 6 -22 -5 -57 -76 -2 -4 22 -14 53 -23
62 -19 205 -22 246 -6 37 14 69 58 69 95 -1 59 -43 86 -133 86 -65 0 -130 17
-124 33 6 19 155 14 193 -6 l31 -16 12 38 c6 21 11 41 11 44 0 3 -21 13 -47
22 -69 23 -169 29 -218 11z m1 -68 c-9 -13 -13 -31 -10 -45 5 -18 3 -22 -10
-17 -25 10 -24 51 2 72 25 19 35 14 18 -10z m224 -128 c13 -24 0 -54 -30 -70
-30 -16 -42 -2 -19 21 14 14 19 29 16 45 -5 30 18 33 33 4z"/>
<path d="M513 720 l-61 -160 54 0 c51 0 55 2 67 31 12 31 13 31 82 31 70 0 70
0 79 -31 9 -30 11 -31 67 -31 l57 0 -55 143 c-30 78 -58 150 -60 160 -5 14
-18 17 -87 17 l-82 0 -61 -160z m103 88 c-27 -39 -38 -71 -33 -108 3 -29 -1
-40 -27 -63 -17 -15 -32 -24 -34 -19 -1 5 11 42 27 83 16 41 34 86 40 102 6
15 18 27 27 27 15 0 15 -2 0 -22z m128 -64 c58 -138 59 -159 5 -108 -23 22
-26 32 -22 64 4 30 0 49 -21 84 -20 34 -23 46 -12 46 8 0 28 -35 50 -86z m-66
6 l21 -60 -45 0 c-24 0 -44 2 -44 4 0 3 20 62 35 104 8 21 13 14 33 -48z"/>
<path d="M880 720 l0 -160 55 0 55 0 -5 123 c-6 138 -12 141 63 -35 l37 -88
80 0 80 0 0 160 0 160 -54 0 -54 0 7 -126 c5 -87 4 -124 -3 -119 -6 3 -11 11
-11 16 0 5 -21 59 -47 119 l-46 110 -79 0 -78 0 0 -160z m133 103 c16 -9 6
-19 -20 -18 -38 0 -53 -34 -53 -123 0 -46 -4 -71 -10 -67 -15 9 -13 198 2 213
11 11 58 8 81 -5z m183 -209 c-3 -8 -17 -14 -31 -14 l-26 0 20 27 c12 14 25
44 29 67 l7 41 3 -54 c2 -29 1 -60 -2 -67z"/>
<path d="M1285 720 l0 -160 53 0 52 0 0 33 c0 30 32 77 52 77 4 0 21 -25 38
-55 l31 -55 72 0 71 0 -26 28 c-13 15 -47 56 -73 91 l-49 64 75 69 74 68 -70
0 -70 0 -62 -67 -62 -68 -1 68 0 67 -52 0 -53 0 0 -160z m69 72 c7 -47 33 -73
61 -62 11 4 40 27 65 51 l44 44 -23 -39 c-22 -35 -23 -42 -11 -75 7 -20 24
-49 37 -65 40 -48 16 -42 -28 7 -22 26 -49 47 -59 47 -19 0 -70 -43 -87 -75
-7 -11 -14 -18 -16 -15 -6 5 -9 91 -8 173 1 57 16 62 25 9z"/>
<path d="M1755 783 c-20 -54 -48 -126 -61 -161 l-24 -63 57 3 c49 3 58 6 61
23 6 31 12 33 87 36 l70 3 9 -32 c9 -31 10 -32 66 -32 l58 0 -62 158 -62 157
-80 3 -81 3 -38 -98z m79 22 c-9 -14 -20 -25 -25 -25 -5 0 -3 11 3 25 6 14 17
25 25 25 11 0 10 -5 -3 -25z m121 -42 c37 -91 56 -153 46 -153 -4 0 -20 13
-35 29 -20 21 -26 34 -21 53 7 27 -15 91 -42 120 -15 17 -15 18 4 18 16 0 27
-15 48 -67z m-79 -73 c-47 -6 -52 0 -37 38 6 15 15 41 22 57 l11 30 22 -60 23
-60 -41 -5z m-75 58 c-11 -28 -11 -37 0 -65 6 -18 2 -26 -28 -49 l-36 -27 7
29 c9 36 53 134 60 134 3 0 2 -10 -3 -22z"/>
<path d="M2095 720 l0 -160 155 0 155 0 2 46 2 46 -104 -4 -105 -4 0 118 0
118 -52 0 -53 0 0 -160z m65 21 c0 -71 3 -83 26 -110 l26 -31 -36 0 -36 0 0
110 c0 67 4 110 10 110 6 0 10 -33 10 -79z"/>
<path d="M2450 721 l0 -161 55 0 55 0 0 40 0 40 83 0 c64 0 89 4 114 20 63 38
63 147 1 193 -24 18 -47 21 -168 25 l-140 5 0 -162z m104 110 c3 -4 -3 -16
-14 -26 -26 -24 -26 -73 1 -101 l21 -22 -28 -36 c-15 -19 -32 -32 -36 -30 -13
8 -10 198 4 212 14 14 44 16 52 3z m196 -30 c15 -29 12 -72 -7 -93 -26 -29
-36 -21 -14 11 26 36 26 42 0 75 -17 21 -18 26 -5 26 8 0 20 -9 26 -19z m-47
-33 c20 -31 -8 -48 -79 -48 l-64 0 0 35 0 36 66 -3 c49 -2 70 -7 77 -20z"/>
<path d="M2355 490 c-25 -10 -70 -58 -63 -65 3 -3 23 5 43 20 45 30 55 31 55
7 0 -32 -27 -58 -124 -116 -53 -32 -96 -64 -96 -71 0 -10 21 -12 88 -10 102 4
116 18 22 23 -36 2 -66 5 -68 7 -2 2 29 22 70 46 113 65 159 124 126 157 -14
14 -25 14 -53 2z"/>
<path d="M2504 448 c-107 -101 -137 -226 -50 -204 50 12 150 169 144 224 -5
44 -33 38 -94 -20z m75 -9 c-15 -42 -42 -83 -88 -131 -39 -42 -51 -47 -51 -19
0 36 30 89 81 145 55 61 77 63 58 5z"/>
<path d="M2725 491 c-25 -11 -70 -59 -63 -66 3 -3 23 5 43 20 45 30 55 31 55
6 0 -25 -51 -76 -103 -103 -66 -33 -117 -70 -117 -83 0 -9 24 -12 90 -10 137
3 126 12 -35 28 -13 1 9 19 67 55 94 57 140 111 121 141 -12 19 -31 23 -58 12z"/>
<path d="M2862 488 c-7 -7 -12 -22 -12 -34 0 -29 -18 -77 -32 -85 -6 -4 -7
-12 -4 -18 5 -8 14 -7 29 4 60 42 78 -6 23 -61 -35 -35 -76 -45 -76 -19 0 19
-26 20 -33 1 -7 -18 12 -36 38 -36 52 0 135 93 119 134 -6 16 -16 20 -46 17
-16 -2 -16 1 -4 31 12 29 19 33 55 36 44 3 57 22 15 22 -14 0 -33 4 -43 10
-12 6 -22 5 -29 -2z"/>
</g>
</svg>
